<svg width="136" height="48" viewBox="0 0 136 48" fill="none" xmlns="http://www.w3.org/2000/svg">
<path d="M6.17991 33V14.6152H14.5318C16.5279 14.6152 18.2876 15.0004 19.8109 15.7709C21.3342 16.5238 22.5248 17.5831 23.3828 18.9488C24.2407 20.3145 24.6697 21.9341 24.6697 23.8076C24.6697 25.6636 24.2407 27.2832 23.3828 28.6664C22.5248 30.0322 21.3342 31.1002 19.8109 31.8707C18.2876 32.6236 16.5279 33 14.5318 33H6.17991ZM10.4347 29.5069H14.3217C15.5474 29.5069 16.6067 29.2793 17.4997 28.824C18.4102 28.3513 19.1105 27.6859 19.6008 26.828C20.1086 25.97 20.3624 24.9632 20.3624 23.8076C20.3624 22.6345 20.1086 21.6277 19.6008 20.7873C19.1105 19.9293 18.4102 19.2727 17.4997 18.8175C16.6067 18.3447 15.5474 18.1083 14.3217 18.1083H10.4347V29.5069ZM34.602 33.2101C32.9912 33.2101 31.5729 32.8949 30.3473 32.2646C29.1391 31.6343 28.2024 30.7763 27.537 29.6907C26.8717 28.5877 26.539 27.3357 26.539 25.935C26.539 24.5167 26.8629 23.2648 27.5107 22.1793C28.1761 21.0762 29.0778 20.2182 30.2159 19.6054C31.354 18.9751 32.641 18.6599 34.0767 18.6599C35.46 18.6599 36.7031 18.9575 37.8062 19.5529C38.9268 20.1307 39.811 20.9711 40.4589 22.0742C41.1067 23.1598 41.4306 24.4642 41.4306 25.9875C41.4306 26.1451 41.4219 26.329 41.4044 26.5391C41.3869 26.7317 41.3694 26.9155 41.3518 27.0906H29.8745V24.7006H39.1982L37.6224 25.4097C37.6224 24.6743 37.4735 24.0352 37.1759 23.4925C36.8782 22.9497 36.4668 22.5294 35.9415 22.2318C35.4162 21.9166 34.8034 21.759 34.103 21.759C33.4026 21.759 32.781 21.9166 32.2383 22.2318C31.713 22.5294 31.3015 22.9584 31.0039 23.5187C30.7062 24.0615 30.5574 24.7093 30.5574 25.4622V26.0926C30.5574 26.863 30.7237 27.5459 31.0564 28.1412C31.4066 28.719 31.8881 29.1655 32.5009 29.4806C33.1312 29.7783 33.8666 29.9271 34.7071 29.9271C35.46 29.9271 36.1166 29.8133 36.6769 29.5857C37.2547 29.3581 37.78 29.0166 38.2527 28.5614L40.4326 30.9251C39.7848 31.6605 38.9706 32.2296 37.9901 32.6323C37.0095 33.0175 35.8802 33.2101 34.602 33.2101ZM47.7364 33L41.8008 18.87H46.0293L50.9669 31.0302H48.8658L53.9873 18.87H57.9269L51.9649 33H47.7364Z" fill="url(#paint0_linear_32_151)"/>
<path d="M63.3282 33.1313C62.5403 33.1313 61.8662 32.965 61.3059 32.6323C60.7456 32.2821 60.3516 31.7919 60.124 31.1615C59.9139 30.5312 59.8964 29.7783 60.0715 28.9028L62.5928 16.1648H64.4576L61.9362 28.824C61.7611 29.682 61.8224 30.3473 62.1201 30.8201C62.4352 31.2928 63.0043 31.5292 63.8272 31.5292C64.2124 31.5292 64.5889 31.4767 64.9566 31.3716C65.3243 31.2491 65.6569 31.0652 65.9546 30.8201L66.4011 32.2383C65.9634 32.571 65.4731 32.8074 64.9303 32.9475C64.3875 33.07 63.8535 33.1313 63.3282 33.1313ZM59.231 20.761L59.5199 19.2114H68.0557L67.7405 20.761H59.231ZM69.6119 33L72.3433 19.2114H74.208L71.4766 33H69.6119ZM74.0767 16.1648C73.709 16.1648 73.4026 16.0422 73.1575 15.7971C72.9299 15.552 72.8161 15.2631 72.8161 14.9304C72.8161 14.5452 72.9474 14.2125 73.21 13.9324C73.4902 13.6522 73.8404 13.5122 74.2606 13.5122C74.6283 13.5122 74.9347 13.626 75.1798 13.8536C75.4249 14.0812 75.5475 14.3701 75.5475 14.7203C75.5475 15.1405 75.4074 15.4907 75.1273 15.7709C74.8471 16.0335 74.4969 16.1648 74.0767 16.1648ZM82.916 33.1313C81.6028 33.1313 80.4647 32.8949 79.5017 32.4222C78.5562 31.9319 77.8208 31.2491 77.2955 30.3736C76.7877 29.4981 76.5338 28.4651 76.5338 27.2745C76.5338 25.6986 76.8753 24.2979 77.5581 23.0722C78.241 21.8291 79.1865 20.8573 80.3946 20.1569C81.6203 19.439 83.0123 19.0801 84.5706 19.0801C85.8488 19.0801 86.9431 19.3165 87.8536 19.7892C88.7816 20.2445 89.4995 20.9273 90.0072 21.8378L88.4314 22.7571C88.0462 22.0567 87.5122 21.5402 86.8293 21.2075C86.164 20.8748 85.3585 20.7085 84.413 20.7085C83.2574 20.7085 82.2244 20.9886 81.3139 21.5489C80.4034 22.1092 79.6855 22.8796 79.1602 23.8601C78.6525 24.8232 78.3986 25.935 78.3986 27.1957C78.3986 28.5439 78.7925 29.5944 79.5805 30.3473C80.3859 31.1002 81.524 31.4767 82.9948 31.4767C83.8877 31.4767 84.7107 31.3104 85.4636 30.9777C86.234 30.6275 86.8643 30.1285 87.3546 29.4806L88.694 30.5049C88.0987 31.3279 87.2846 31.9757 86.2515 32.4485C85.2185 32.9037 84.1066 33.1313 82.916 33.1313ZM93.4915 29.323L93.8592 27.0381L103.892 19.2114H106.545L99.007 25.0683L97.9827 25.8562L93.4915 29.323ZM91.2591 33L95.1462 13.5122H97.0109L93.1238 33H91.2591ZM102.027 33L97.6675 25.8299L98.9544 24.438L104.207 33H102.027ZM112.515 33.1313C111.202 33.1313 110.055 32.8949 109.075 32.4222C108.112 31.9319 107.368 31.2491 106.842 30.3736C106.335 29.4981 106.081 28.4563 106.081 27.2482C106.081 25.6724 106.413 24.2716 107.079 23.046C107.744 21.8203 108.655 20.8573 109.81 20.1569C110.966 19.439 112.27 19.0801 113.724 19.0801C114.949 19.0801 116.009 19.3165 116.902 19.7892C117.794 20.2445 118.486 20.9098 118.976 21.7853C119.484 22.6608 119.738 23.7113 119.738 24.937C119.738 25.2171 119.721 25.506 119.686 25.8037C119.65 26.0838 119.607 26.3552 119.554 26.6179H107.447L107.683 25.2259H118.687L117.926 25.7512C118.101 24.6481 118.022 23.7201 117.689 22.9672C117.357 22.2143 116.84 21.6452 116.14 21.26C115.457 20.8573 114.634 20.6559 113.671 20.6559C112.55 20.6559 111.552 20.9361 110.677 21.4964C109.802 22.0392 109.119 22.8008 108.628 23.7814C108.138 24.7444 107.893 25.8737 107.893 27.1694C107.893 28.5526 108.287 29.6207 109.075 30.3736C109.88 31.109 111.08 31.4767 112.673 31.4767C113.601 31.4767 114.459 31.3279 115.247 31.0302C116.035 30.715 116.683 30.2861 117.19 29.7433L118.031 31.0827C117.383 31.7306 116.569 32.2383 115.588 32.606C114.625 32.9562 113.601 33.1313 112.515 33.1313ZM126.449 33.1313C125.661 33.1313 124.987 32.965 124.427 32.6323C123.866 32.2821 123.472 31.7919 123.245 31.1615C123.035 30.5312 123.017 29.7783 123.192 28.9028L125.713 16.1648H127.578L125.057 28.824C124.882 29.682 124.943 30.3473 125.241 30.8201C125.556 31.2928 126.125 31.5292 126.948 31.5292C127.333 31.5292 127.71 31.4767 128.077 31.3716C128.445 31.2491 128.778 31.0652 129.075 30.8201L129.522 32.2383C129.084 32.571 128.594 32.8074 128.051 32.9475C127.508 33.07 126.974 33.1313 126.449 33.1313ZM122.352 20.761L122.641 19.2114H131.176L130.861 20.761H122.352Z" fill="white"/>
<defs>
<linearGradient id="paint0_linear_32_151" x1="4" y1="24" x2="132" y2="24" gradientUnits="userSpaceOnUse">
<stop stop-color="#7480FF"/>
<stop offset="1" stop-color="#454D99"/>
</linearGradient>
</defs>
</svg>
